<svg width="27" height="27" viewBox="0 0 27 27" fill="none" xmlns="http://www.w3.org/2000/svg">
<path d="M15.2984 10.0355H17.158V17.5385H18.7725V6.23669C18.7725 6.10651 18.6989 6 18.609 6H17.624C17.5484 6 17.4809 6.07692 17.4666 6.18639C17.4135 6.54438 17.3256 6.84615 17.203 7.10059C17.0559 7.39941 16.8781 7.63905 16.6655 7.82249C16.455 8.00592 16.2159 8.13314 15.9503 8.20414C15.7377 8.26035 15.5211 8.2929 15.2963 8.29586C15.2064 8.29882 15.1349 8.40237 15.1349 8.53254V9.79882C15.1349 9.92899 15.2084 10.0355 15.2984 10.0355ZM20.8365 19.1065H14.624C14.5341 19.1065 14.4605 19.213 14.4605 19.3432V20.7633C14.4605 20.8935 14.5341 21 14.624 21H20.8365C20.9264 21 21 20.8935 21 20.7633V19.3432C21 19.213 20.9264 19.1065 20.8365 19.1065ZM12.1083 7.58876C11.7793 7.02663 11.4053 6.63018 10.9802 6.39349C10.545 6.15089 10.079 6.02959 9.58242 6.02959C9.094 6.02959 8.6342 6.15089 8.19891 6.39349C7.77384 6.63018 7.40191 7.02663 7.07902 7.5858C6.75409 8.15089 6.49251 8.90828 6.29632 9.86391C6.10014 10.8254 6 12.0237 6 13.4586C6 14.9349 6.10014 16.1627 6.29632 17.1391C6.49251 18.1095 6.75409 18.8757 7.07902 19.4379C7.40191 19.997 7.77384 20.3935 8.19891 20.6302C8.6342 20.8728 9.094 20.9941 9.58242 20.9941C10.0811 20.9941 10.547 20.8728 10.9802 20.6302C11.4053 20.3935 11.7813 19.997 12.1083 19.4349C12.4373 18.8728 12.701 18.1065 12.8971 17.1361C13.0933 16.1598 13.1935 14.932 13.1935 13.4556C13.1935 12.0237 13.0933 10.8254 12.8971 9.86095C12.703 8.91124 12.4394 8.15385 12.1083 7.58876ZM11.5054 15.0355C11.485 15.6686 11.4196 16.2781 11.3113 16.8669C11.1989 17.4793 11.015 18.0059 10.7595 18.4467C10.4816 18.929 10.0811 19.1657 9.58242 19.1657C9.09196 19.1657 8.69959 18.926 8.42371 18.4438C8.17439 18.0059 7.99251 17.4793 7.88011 16.8669C7.7718 16.2781 7.7064 15.6657 7.68597 15.0355C7.66553 14.4201 7.65531 13.8965 7.65531 13.4615C7.65531 13.2012 7.65736 12.8876 7.66349 12.5207C7.66757 12.145 7.68597 11.7574 7.71662 11.3609C7.74728 10.9586 7.79837 10.5592 7.87193 10.1627C7.94755 9.75444 8.05177 9.38461 8.18665 9.05621C8.32766 8.71302 8.50954 8.43195 8.73229 8.21893C8.96526 7.99408 9.24932 7.88462 9.58038 7.88462C9.9094 7.88462 10.1955 7.99408 10.4326 8.21598C10.6594 8.42899 10.8474 8.7071 10.9925 9.0503C11.1335 9.38166 11.2398 9.75444 11.3113 10.1657C11.3787 10.5562 11.4298 10.9527 11.4646 11.3521C11.5014 11.7515 11.5218 12.1391 11.5259 12.5178C11.53 12.8846 11.5341 13.1982 11.5341 13.4586C11.5361 13.8964 11.5259 14.4201 11.5054 15.0355Z" fill="#333333"/>
</svg>
